HIERARCHY
ROOT Hips
{
  OFFSET 52.6098 86.8214 4.58155
  CHANNELS 6 Xposition Yposition Zposition Zrotation Xrotation Yrotation
  JOINT spine
  {
    OFFSET 0 6.84637 0.3937
    CHANNELS 3 Zrotation Xrotation Yrotation
    JOINT spine1
    {
      OFFSET 0 9.49621 0
      CHANNELS 3 Zrotation Xrotation Yrotation
      JOINT spine2
      {
        OFFSET 0 9.09909 0
        CHANNELS 3 Zrotation Xrotation Yrotation
        JOINT Neck
        {
          OFFSET 0 23.3612 1.11378
          CHANNELS 3 Zrotation Xrotation Yrotation
          JOINT Head
          {
            OFFSET 0 7.05802 0
            CHANNELS 3 Zrotation Xrotation Yrotation
            End Site
            {
              OFFSET 0 17.0844 -5.63419
            }
          }
        }
        JOINT RightShoulder
        {
          OFFSET -3.83136 9.82631 -0.533491
          CHANNELS 3 Zrotation Xrotation Yrotation
          JOINT RightArm
          {
            OFFSET 0 12.8881 0
            CHANNELS 3 Zrotation Xrotation Yrotation
            JOINT RightArmRoll
            {
              OFFSET 0 6.50617 0
              CHANNELS 3 Zrotation Xrotation Yrotation
              JOINT RightForeArm
              {
                OFFSET 0 18.9501 0
                CHANNELS 3 Zrotation Xrotation Yrotation
                JOINT RightForeArmRoll
                {
                  OFFSET 0 7.30092 0
                  CHANNELS 3 Zrotation Xrotation Yrotation
                  JOINT RightHand
                  {
                    OFFSET 0 14.6514 0
                    CHANNELS 3 Zrotation Xrotation Yrotation
                    End Site
                    {
                      OFFSET 0 0 0
                    }
                  }
                }
              }
            }
          }
        }
        JOINT LeftShoulder
        {
          OFFSET 3.83136 9.82631 -0.533491
          CHANNELS 3 Zrotation Xrotation Yrotation
          JOINT LeftArm
          {
            OFFSET 0 12.8881 0
            CHANNELS 3 Zrotation Xrotation Yrotation
            JOINT LeftArmRoll
            {
              OFFSET 0 6.50617 0
              CHANNELS 3 Zrotation Xrotation Yrotation
              JOINT LeftForeArm
              {
                OFFSET 0 18.9501 0
                CHANNELS 3 Zrotation Xrotation Yrotation
                JOINT LeftForeArmRoll
                {
                  OFFSET 0 7.30093 0
                  CHANNELS 3 Zrotation Xrotation Yrotation
                  JOINT LeftHand
                  {
                    OFFSET 0 14.6514 0
                    CHANNELS 3 Zrotation Xrotation Yrotation
                    End Site
                    {
                      OFFSET 0 0 0
                    }
                  }
                }
              }
            }
          }
        }
      }
    }
  }
  JOINT RightUpLeg
  {
    OFFSET -6.06837 -1.11278 -0.933477
    CHANNELS 3 Zrotation Xrotation Yrotation
    JOINT RightUpLegRoll
    {
      OFFSET 0 17.1796 0
      CHANNELS 3 Zrotation Xrotation Yrotation
      JOINT RightLeg
      {
        OFFSET 0 -21.2743 0
        CHANNELS 3 Zrotation Xrotation Yrotation
        JOINT RightLegRoll
        {
          OFFSET 0 21.3439 0
          CHANNELS 3 Zrotation Xrotation Yrotation
          JOINT RightFoot
          {
            OFFSET 0 17.7652 0
            CHANNELS 3 Zrotation Xrotation Yrotation
            JOINT RightToeBase
            {
              OFFSET 0 14.8508 0
              CHANNELS 3 Zrotation Xrotation Yrotation
              End Site
              {
                OFFSET 0.0062947 7.19214 -0.829005
              }
            }
          }
        }
      }
    }
  }
  JOINT LeftUpLeg
  {
    OFFSET 6.06837 -1.11278 -0.933477
    CHANNELS 3 Zrotation Xrotation Yrotation
    JOINT LeftUpLegRoll
    {
      OFFSET 0 17.1797 0
      CHANNELS 3 Zrotation Xrotation Yrotation
      JOINT LeftLeg
      {
        OFFSET 0 21.2742 0
        CHANNELS 3 Zrotation Xrotation Yrotation
        JOINT LeftLegRoll
        {
          OFFSET 0 21.5412 0
          CHANNELS 3 Zrotation Xrotation Yrotation
          JOINT LeftFoot
          {
            OFFSET 0 17.5679 0
            CHANNELS 3 Zrotation Xrotation Yrotation
            JOINT LeftToeBase
            {
              OFFSET 0 14.8508 0
              CHANNELS 3 Zrotation Xrotation Yrotation
              End Site
              {
                OFFSET -0.0282102 7.19213 -0.829005
              }
            }
          }
        }
      }
    }
  }
}
MOTION
Frames: 9
Frame Time: 0.00208333
50.7149 86.7378 2.73292 3.08765 -1.99004 9.36539 2.35508 0.530525 0.664028 4.7195 5.08028 0.99933 4.71609 6.72202 0.921246 -43.3563 23.8424 9.56682 31.4593 16.4576 -9.85541 19.1778 -0.386246 6.17118 97.5433 68.5687 14.4216 9.01048e-007 -5.65725e-011 -3.54326e-006 9.40832 25.8171 -3.27468 -1.01133e-005 -2.45118e-006 -3.00039 8.02932 -4.95141 0.697703 -69.4562 -13.0713 7.81956 -81.5323 16.0781 50.7021 -1.12321e-005 3.03428e-007 5.71912e-006 123.213 66.5166 -96.6314 5.91669e-006 -4.52211e-006 3.00034 -8.02932 -4.95142 -0.697703 176.232 14.0504 0.59731 180 7.01537e-015 178.88 175.622 25.2549 -179.457 -1.97482e-006 -6.73334e-007 0.646019 -25.1349 71.9054 23.8003 8.13649 25.2327 -3.48774 178.541 11.9047 4.21889 4.54188e-006 -4.6773e-006 -1.05445 -0.152759 -20.55 0.847608 3.15761e-006 -4.01226e-006 -0.518848 16.9681 69.6138 -20.8309 -8.13649 25.2326 3.48774 
50.7296 86.7389 2.75303 3.07089 -2.02554 9.27629 2.34828 0.521546 0.671007 4.70536 5.0626 1.0147 4.70172 6.70435 0.936875 -43.1381 23.8744 9.50545 31.2475 16.4188 -9.808 19.4844 -0.433529 6.0445 98.0456 68.2866 13.5528 9.01048e-007 -5.65709e-011 -3.54326e-006 9.54293 26.2726 -3.33266 -1.01133e-005 -2.45118e-006 -3.00039 8.02932 -4.95141 0.697703 -69.287 -13.0108 7.79343 -81.7372 16.6363 50.7033 -1.12321e-005 3.03428e-007 5.71912e-006 122.741 66.7682 -96.4727 5.91669e-006 -4.52211e-006 3.00034 -8.02932 -4.95142 -0.697703 176.253 14.0204 0.579525 180 7.01537e-015 178.879 175.631 25.2485 -179.46 -1.97482e-006 -6.73334e-007 0.64578 -25.1198 71.9019 23.7946 8.13649 25.2327 -3.48774 178.562 11.8752 4.18564 4.54188e-006 -4.6773e-006 -1.05457 -0.162872 -20.5959 0.845322 3.15761e-006 -4.01226e-006 -0.51987 17.018 69.6549 -20.8679 -8.13649 25.2326 3.48774 
50.7413 86.7374 2.75742 3.05719 -2.06268 9.18715 2.34063 0.513207 0.677891 4.68945 5.04618 1.02999 4.68557 6.68795 0.952452 -42.9171 23.9051 9.44051 31.037 16.3792 -9.76252 19.7904 -0.482701 5.91654 98.5331 67.999 12.692 9.01048e-007 -5.65614e-011 -3.54326e-006 9.67386 26.7285 -3.38985 -1.01133e-005 -2.45118e-006 -3.00039 8.02932 -4.95141 0.697703 -69.1137 -12.9498 7.76695 -81.9494 17.1955 50.708 -1.12321e-005 3.03428e-007 5.71912e-006 122.256 67.021 -96.3031 5.91669e-006 -4.52211e-006 3.00033 -8.02932 -4.95142 -0.697703 176.271 13.9892 0.563789 180 7.01537e-015 178.879 175.64 25.2449 -179.463 -1.97482e-006 -6.73334e-007 0.645578 -25.1062 71.8998 23.7908 8.13649 25.2327 -3.48774 178.58 11.843 4.15345 4.54188e-006 -4.6773e-006 -1.05476 -0.173868 -20.6419 0.842659 3.15761e-006 -4.01226e-006 -0.520909 17.071 69.6984 -20.9073 -8.13649 25.2326 3.48774 
50.7542 86.7362 2.7653 3.04582 -2.10084 9.098 2.33228 0.505341 0.68463 4.67208 5.03071 1.04508 4.66796 6.6725 0.967847 -42.6939 23.9344 9.37283 30.8276 16.3394 -9.71843 20.0958 -0.533592 5.78751 99.0064 67.7062 11.8394 9.01048e-007 -5.65821e-011 -3.54326e-006 9.80064 27.1852 -3.44595 -1.01133e-005 -2.45118e-006 -3.00038 8.02932 -4.95141 0.697703 -68.9371 -12.8882 7.74012 -82.169 17.7554 50.7142 -1.12321e-005 3.03428e-007 5.71912e-006 121.76 67.2759 -96.1235 5.91668e-006 -4.52211e-006 3.00033 -8.02932 -4.95142 -0.697703 176.286 13.9574 0.549713 180 7.01536e-015 178.878 175.65 25.2434 -179.467 -1.97482e-006 -6.73334e-007 0.645399 -25.0935 71.8988 23.7884 8.13649 25.2327 -3.48774 178.597 11.8087 4.1222 4.54188e-006 -4.6773e-006 -1.05501 -0.18549 -20.6878 0.839727 3.15761e-006 -4.01226e-006 -0.521968 17.1264 69.7441 -20.9488 -8.13649 25.2326 3.48774 
50.767 86.7366 2.77476 3.0361 -2.13943 9.00886 2.32339 0.497781 0.691173 4.65359 5.01583 1.05983 4.64924 6.65765 0.982931 -42.469 23.9621 9.30319 30.619 16.2996 -9.67515 20.4008 -0.586033 5.65767 99.4661 67.4083 10.995 9.01048e-007 -5.65709e-011 -3.54326e-006 9.92283 27.6431 -3.50064 -1.01133e-005 -2.45118e-006 -3.00038 8.02932 -4.95141 0.697703 -68.7577 -12.8261 7.71294 -82.3958 18.3161 50.7196 -1.12321e-005 3.03428e-007 5.71912e-006 121.25 67.5337 -95.9345 5.91669e-006 -4.52211e-006 3.00033 -8.02932 -4.95142 -0.697703 176.3 13.9255 0.536909 180 7.01536e-015 178.877 175.659 25.2434 -179.47 -1.97482e-006 -6.73334e-007 0.645232 -25.0816 71.8987 23.787 8.13649 25.2327 -3.48774 178.611 11.7733 4.09177 4.54188e-006 -4.6773e-006 -1.0553 -0.197481 -20.7339 0.836633 3.15761e-006 -4.01226e-006 -0.523048 17.1838 69.7915 -20.9922 -8.13649 25.2326 3.48774 
50.7644 86.7384 2.80501 3.0273 -2.17782 8.91975 2.31412 0.49036 0.697469 4.6343 5.00123 1.07413 4.62973 6.64306 0.997572 -42.2427 23.988 9.23242 30.411 16.2602 -9.63213 20.7053 -0.639853 5.52722 99.9127 67.1056 10.159 9.01048e-007 -5.65741e-011 -3.54326e-006 10.0399 28.1028 -3.55361 -1.01133e-005 -2.45118e-006 -3.00038 8.02932 -4.95141 0.697703 -68.5761 -12.7636 7.68543 -82.6296 18.8775 50.7219 -1.12321e-005 3.03428e-007 5.71912e-006 120.729 67.7953 -95.737 5.91669e-006 -4.52211e-006 3.00033 -8.02932 -4.95142 -0.697703 176.312 13.8939 0.524989 180 7.01536e-015 178.877 175.669 25.2443 -179.474 -1.97482e-006 -6.73334e-007 0.645065 -25.0699 71.8989 23.7862 8.13649 25.2327 -3.48774 178.624 11.7375 4.06204 4.54188e-006 -4.6773e-006 -1.05561 -0.209583 -20.7799 0.833483 3.15761e-006 -4.01226e-006 -0.524153 17.2425 69.8403 -21.037 -8.13649 25.2326 3.48774 
50.7805 86.7377 2.81095 3.01874 -2.21541 8.83068 2.30461 0.482911 0.703467 4.61455 4.98655 1.08785 4.60976 6.62841 1.01164 -42.0157 24.012 9.16131 30.2033 16.2216 -9.58882 21.0094 -0.694884 5.3964 100.347 66.7984 9.33146 9.01048e-007 -5.65789e-011 -3.54326e-006 10.1515 28.5645 -3.60456 -1.01133e-005 -2.45118e-006 -3.00038 8.02932 -4.95141 0.697703 -68.3931 -12.7007 7.65759 -82.8703 19.4397 50.7189 -1.12321e-005 3.03428e-007 5.71912e-006 120.196 68.0617 -95.5315 5.91669e-006 -4.52211e-006 3.00033 -8.02932 -4.95142 -0.697703 176.323 13.8633 0.513565 180 7.01536e-015 178.877 175.679 25.2455 -179.477 -1.97482e-006 -6.73334e-007 0.644886 -25.0582 71.8991 23.7853 8.13649 25.2327 -3.48774 178.637 11.7022 4.03288 4.54188e-006 -4.6773e-006 -1.0559 -0.221537 -20.8261 0.830386 3.15761e-006 -4.01226e-006 -0.525283 17.3021 69.8901 -21.0829 -8.13649 25.2326 3.48774 
50.7908 86.7371 2.82399 3.00971 -2.25159 8.7417 2.29504 0.475268 0.709115 4.59467 4.97147 1.10086 4.58966 6.61335 1.02501 -41.7883 24.0339 9.09068 29.9958 16.1841 -9.54465 21.3132 -0.750953 5.26544 100.77 66.4869 8.51228 9.01048e-007 -5.65662e-011 -3.54326e-006 10.257 29.0289 -3.65315 -1.01133e-005 -2.45118e-006 -3.00038 8.02932 -4.95141 0.697703 -68.2091 -12.6376 7.62942 -83.1174 20.0029 50.7081 -1.12321e-005 3.03428e-007 5.71912e-006 119.651 68.3337 -95.3189 5.91669e-006 -4.52211e-006 3.00033 -8.02932 -4.95142 -0.697703 176.334 13.834 0.502249 180 -7.01536e-015 178.876 175.689 25.2465 -179.48 -1.97482e-006 -6.73334e-007 0.644683 -25.0461 71.8991 23.7841 8.13649 25.2327 -3.48774 178.65 11.6682 4.00419 4.54188e-006 -4.6773e-006 -1.05616 -0.233084 -20.8723 0.827449 3.15761e-006 -4.01226e-006 -0.526442 17.3619 69.9406 -21.1297 -8.13649 25.2326 3.48774 
50.8022 86.7368 2.8374 2.99952 -2.28575 8.6528 2.28555 0.467262 0.714362 4.57498 4.95565 1.11305 4.56977 6.59756 1.03754 -41.5611 24.0537 9.02134 29.7882 16.148 -9.49907 21.6167 -0.80789 5.13456 101.181 66.1713 7.70142 9.01048e-007 -5.6563e-011 -3.54326e-006 10.356 29.4962 -3.69906 -1.01133e-005 -2.45118e-006 -3.00037 8.02932 -4.95141 0.697703 -68.025 -12.5743 7.60093 -83.3705 20.5671 50.6872 -1.12321e-005 3.03428e-007 5.71912e-006 119.093 68.6122 -95.0998 5.91669e-006 -4.52211e-006 3.00033 -8.02932 -4.95142 -0.697703 176.346 13.8067 0.490653 180 7.01536e-015 178.876 175.698 25.2466 -179.484 -1.97482e-006 -6.73334e-007 0.644444 -25.0333 71.8984 23.7819 8.13649 25.2327 -3.48774 178.663 11.6363 3.97583 4.54188e-006 -4.6773e-006 -1.05636 -0.243966 -20.9186 0.824779 3.15761e-006 -4.01226e-006 -0.527631 17.4214 69.9913 -21.1769 -8.13649 25.2326 3.48774 
